<svg width="64" height="64" viewBox="0 0 64 64" fill="none" xmlns="http://www.w3.org/2000/svg">
    <rect width="64" height="64" rx="16" fill="#050000"/>
    
    <g filter="url(#glow)">
        <path d="M32 54.4C32 54.4 11.2 38.4 11.2 24C11.2 17.6 16 12.8 22.4 12.8C27.2 12.8 30.4 15.2 32 17.6C33.6 15.2 36.8 12.8 41.6 12.8C48 12.8 52.8 17.6 52.8 24C52.8 38.4 32 54.4 32 54.4Z" fill="#FF0000" fill-opacity="0.4"/>
    </g>

    <path d="M32 52C32 52 12.8 37 12.8 23.5C12.8 17.5 17.3 13 23.3 13C27.8 13 30.8 15.25 32 17.5C33.2 15.25 36.2 13 40.7 13C46.7 13 51.2 17.5 51.2 23.5C51.2 37 32 52 32 52Z" fill="url(#blood-gradient)"/>

    <defs>
        <linearGradient id="blood-gradient" x1="32" y1="13" x2="32" y2="52" gradientUnits="userSpaceOnUse">
            <stop stop-color="#FF3333"/>
            <stop offset="1" stop-color="#880000"/>
        </linearGradient>
        <filter id="glow" x="0" y="0" width="64" height="64" filterUnits="userSpaceOnUse">
            <feGaussianBlur stdDeviation="3" result="effect1_foregroundBlur"/>
        </filter>
    </defs>
</svg>
